<svg width="36" height="36" viewBox="0 0 36 36" fill="none" xmlns="http://www.w3.org/2000/svg">
<path d="M17.01 25.3519L10.6425 18.9889C10.3725 18.7189 10.2937 18.3499 10.3612 18C10.2937 17.6501 10.3725 17.2811 10.6425 17.0111L17.01 10.6481C17.4488 10.2083 18.1575 10.2083 18.6075 10.6481C19.0462 11.0869 19.0462 11.799 18.6075 12.2389L13.9613 16.875L25.875 16.875C26.4937 16.875 27 17.379 27 18C27 18.6221 26.4937 19.125 25.875 19.125L13.9613 19.125L18.6075 23.7611C19.0462 24.201 19.0462 24.9142 18.6075 25.3519C18.1575 25.7917 17.4488 25.7917 17.01 25.3519ZM36 18C36 8.05838 27.945 0 18 0C8.055 0 0 8.05838 0 18C0 27.9416 8.055 36 18 36C27.945 36 36 27.9416 36 18Z" fill="black"/>
</svg>
