<svg width="36" height="36" viewBox="0 0 36 36" fill="none" xmlns="http://www.w3.org/2000/svg">
<path d="M18.99 10.6481L25.3575 17.0111C25.6275 17.2811 25.7063 17.6501 25.6388 18C25.7063 18.3499 25.6275 18.7189 25.3575 18.9889L18.99 25.3519C18.5512 25.7917 17.8425 25.7917 17.3925 25.3519C16.9538 24.9131 16.9538 24.201 17.3925 23.7611L22.0387 19.125H10.125C9.50625 19.125 9 18.621 9 18C9 17.3779 9.50625 16.875 10.125 16.875H22.0387L17.3925 12.2389C16.9538 11.799 16.9538 11.0858 17.3925 10.6481C17.8425 10.2083 18.5512 10.2083 18.99 10.6481ZM0 18C0 27.9416 8.055 36 18 36C27.945 36 36 27.9416 36 18C36 8.05837 27.945 0 18 0C8.055 0 0 8.05837 0 18Z" fill="black"/>
</svg>
